<?xml version="1.0" standalone="no"?>
<!DOCTYPE svg PUBLIC "-//W3C//DTD SVG 20010904//EN"
 "http://www.w3.org/TR/2001/REC-SVG-20010904/DTD/svg10.dtd">
<svg version="1.0" xmlns="http://www.w3.org/2000/svg"
 width="260.000000pt" height="260.000000pt" viewBox="0 0 260.000000 260.000000"
 preserveAspectRatio="xMidYMid meet">
<metadata>
Created by potrace 1.11, written by Peter Selinger 2001-2013
</metadata>
<g transform="translate(0.000000,260.000000) scale(0.100000,-0.100000)"
fill="#000000" stroke="none">
<path d="M195 2535 c-48 -14 -98 -56 -121 -102 -18 -36 -18 -84 -19 -1118 -1
-608 3 -1095 8 -1114 5 -18 17 -43 28 -54 10 -12 19 -24 19 -27 0 -4 11 -13
25 -20 17 -9 24 -19 20 -29 -5 -12 -3 -13 5 -5 8 8 23 9 43 4 18 -4 498 -7
1067 -6 569 1 1045 -2 1058 -6 13 -4 22 -3 22 3 0 5 6 9 13 8 55 -9 136 54
160 126 10 32 13 250 12 1120 -1 1024 -2 1082 -19 1118 -20 40 -64 82 -105
100 -35 14 -2165 17 -2216 2z"/>
<path d="M246 42 c-3 -5 1 -9 9 -9 8 0 12 4 9 9 -3 4 -7 8 -9 8 -2 0 -6 -4 -9
-8z"/>
<path d="M1093 35 c0 -8 4 -12 9 -9 5 3 6 10 3 15 -9 13 -12 11 -12 -6z"/>
<path d="M1570 40 c0 -5 5 -10 11 -10 5 0 7 5 4 10 -3 6 -8 10 -11 10 -2 0 -4
-4 -4 -10z"/>
<path d="M2050 40 c0 -5 5 -10 11 -10 5 0 7 5 4 10 -3 6 -8 10 -11 10 -2 0 -4
-4 -4 -10z"/>
</g>
</svg>
